<svg xmlns="http://www.w3.org/2000/svg" viewBox="0 0 850.43 757.34"><defs><style>.cls-1{fill:#fff;}.cls-2{fill:#01adf1;}.cls-3{fill:#ee1d25;}.cls-4{fill:#fcb81a;}</style></defs><g id="Layer_2" data-name="Layer 2"><g id="Layer_1-2" data-name="Layer 1"><path class="cls-1" d="M390,15.49c72.9-5.54,147.22,6.18,214.42,35.19C675,81.08,737.85,130.75,780.33,195.1c25.15,38,42.93,80.91,51,125.78a326,326,0,0,1-3,129.88c-13.81,60.88-45.57,117.13-88.62,162.11-39.7,41.85-88.76,74.44-142,96.36a448.33,448.33,0,0,1-159.22,33.43c-13,1-26,0-39-.41A454,454,0,0,1,266.81,714.7c-70-26-133.73-70.34-179.8-129.39A346.3,346.3,0,0,1,30.29,479.88,323.83,323.83,0,0,1,15,353.74,327.14,327.14,0,0,1,44.56,241c28.36-61.42,75-113.59,130.77-151.48C238.63,46.36,313.68,21.29,390,15.49Zm1.32,8.62a439.31,439.31,0,0,0-71.55,11.14C248.46,52.31,181.19,87.61,128.36,138.64,83.18,182,48.88,237.25,33,298a307.71,307.71,0,0,0-10.27,72.86c-.92,8,.26,16,.28,24,2.67,56.05,21.15,111,51.44,158.08,41.79,65.28,105,115.61,176,145.94,70.79,30.36,149.6,41.19,226,32.53,70.21-7.85,138.69-32.58,196.83-72.87,47.76-33,88.5-76.74,116-128,30.5-56,43.84-121.28,37-184.72a322.6,322.6,0,0,0-42.22-128.56A360.15,360.15,0,0,0,717.33,134C659.42,80,585.22,44.54,507.52,30.31,469.27,23.12,430.09,21.42,391.29,24.11Z"/><path class="cls-1" d="M390,32.67C468.37,26.55,548.56,41,618.93,76.29c65.58,32.6,122.84,83.44,159.17,147.38a312.16,312.16,0,0,1,41,136.2c.25,9.62,1.3,19.25.36,28.87a306.13,306.13,0,0,1-21.56,103.47c-23.85,60.55-66.43,112.86-118.52,151.48-56.26,42-123.66,68.34-193.09,77.93-87.08,11.88-178-1.85-256.52-41.69-65.57-33-122.71-84.34-158.63-148.74A313.17,313.17,0,0,1,32.15,407a308.57,308.57,0,0,1,7.64-102.09c16.51-67.22,56.08-127.65,108.15-172.8,59-51.49,133.45-84.22,210.7-95.74C369.06,34.75,379.54,33.62,390,32.67ZM357.21,71.55c3-.17,6-.1,9-.54,1.9-2,3.16-4.5,5.18-6.38a61.85,61.85,0,0,1,5.31,5.78c3.16-.1,6.32-.28,9.49-.43-3.37-3.84-6.75-7.67-10.28-11.37-3.34.46-6.75.34-10.08.91C362.63,63.29,360.16,67.61,357.21,71.55Zm-7.13,8c2.52,19.32,4.77,38.69,7.17,58,12.26-1.19,24.47-2.89,36.7-4.38-.61-3.9-1-7.83-1.66-11.73-7.18,1.07-14.41,1.75-21.59,2.78-.75-4-1.18-8.06-1.76-12.09,4.83-.79,9.72-1.21,14.57-1.9-.27-3.7-.65-7.39-.95-11.09-5,.28-10,1.33-15.05,1.45-.37-3.84-.8-7.68-1.34-11.5,7.27-1.2,14.64-1.72,21.92-2.87-.43-3.7-1-7.39-1.33-11.1C374.52,76.56,362.31,78.21,350.08,79.59Zm56.61,53.71,11.59.06c.31-10.87.27-21.74.65-32.61,5.5,11,11.46,21.76,17.15,32.66l11.78,0c0-19.48.25-39,.18-58.44a96.63,96.63,0,0,0-11.79.07c-.14,10.34-.1,20.69-.38,31-5.75-10.43-11.15-21-17-31.43q-6,0-12,0C406.73,94.18,406.76,113.74,406.69,133.3ZM324.75,84.76c3.44,19.23,7.05,38.43,10.57,57.65,4.86-.91,9.74-1.7,14.55-2.81-3.71-19.13-7-38.35-10.75-57.46C334.34,83.06,329.56,84,324.75,84.76Zm169.19,3.4c-8.05,7.21-11.06,18.29-12.32,28.66-1,8.21.92,17.79,8.06,22.85,7.15,4.82,17.57,6.55,24.87,1.12,4.51-3.13,7-8.23,8.55-13.34-4.05-1.54-8.16-2.93-12.29-4.21-1,3.06-1.6,6.6-4.22,8.76-2.67,2.32-7.11,1.31-9.12-1.39-1.91-3.27-1.19-7.22-.6-10.75a101.52,101.52,0,0,1,4.77-17.77c1.14-2.63,2.43-5.56,5.12-6.93a5.1,5.1,0,0,1,6.15,1.18c2.29,3,1.27,7,1.17,10.52,4.51.9,8.93,2.27,13.49,2.93,1-6.78.93-14.59-4.23-19.78C515.75,82.63,502.17,80.76,493.94,88.16Zm-196,4.19c1.41,13.89,3.32,27.73,4.32,41.66-6.59-12.06-13.54-23.92-20.32-35.87-4.62,1.64-9.18,3.45-13.86,4.89,10.34,17.13,21.57,33.72,32.22,50.66,4.7-1.56,9.31-3.36,14-4.9-1.1-20.24-3.33-40.41-4.77-60.63C305.65,89.48,301.78,90.89,297.94,92.35ZM544.15,94c-7.07,18.21-14.13,36.43-20.89,54.75,4.56,1.69,9.09,3.5,13.71,5.08,2.94-7.37,5.62-14.84,8.55-22.21,3.71,1.21,7.35,2.62,11,4.06-2.84,7.47-5.67,15-8.56,22.41l13.74,5.32q10.59-27.3,20.91-54.71c-4.57-1.79-9.12-3.64-13.8-5.13-2.64,7-5.35,14-8,21-3.7-1.35-7.38-2.74-11-4.26,2.74-7,5.63-14,8-21.24C553.19,97.47,548.68,95.69,544.15,94Zm-323.57,33.9c3.21,6.63,7.43,12.74,10.95,19.22-3.35,2-6.52,4.27-10.16,5.67-4-6.21-7.48-12.75-11.19-19.14-4.52,2-8.64,4.83-13,7.25q12.75,21.92,25.57,43.8a45,45,0,0,0,4.17,6.6c4.28-2.26,8.37-4.86,12.55-7.3-4-6.88-8.07-13.72-12-20.62,3.28-2.14,6.68-4.07,10.15-5.88q6,10.26,12,20.55c4.33-2.3,8.5-4.88,12.75-7.3-9.7-17-19.64-33.79-29.52-50.64C228.9,122.85,223.87,124.44,220.58,127.88Zm378.92-3c-9.43,4-15.55,12.94-19.88,21.83-3.43,7.32-5.3,16.34-1.37,23.84a23.72,23.72,0,0,0,17.18,11.57c8.36,1,15.92-4.18,21.07-10.29,6.63-8.08,11.86-18.09,11.75-28.79,4.27.25,9,.81,12.73-1.88,3.17-1.91,4.29-6.7,1.8-9.58-2.4-3.32-8.2-3.23-10.31.35-1.57,2.16.2,4.55,1.12,6.57-1.41.18-2.82.38-4.22.58l-1.78-.77C623.93,127.33,610.39,120.11,599.5,124.85ZM370.62,138.24c.26,3.37.4,6.74.52,10.12l10.21-.41c-.13-3.5-.3-7-.45-10.49C377.47,137.69,374.05,138.05,370.62,138.24Zm-196.51,21.9c6.4,8.14,13.49,15.71,20,23.72-11.13-3.76-22-8.19-33-12.37-3.21,2.66-6.4,5.34-9.47,8.16,13,14.6,25.51,29.59,38.52,44.16,2.91-2.61,5.88-5.16,8.83-7.72-7-8.11-14-16.18-20.86-24.4,11.62,3.77,22.83,8.7,34.31,12.87,2.88-2.65,5.85-5.18,8.8-7.74-12.73-14.64-25.29-29.45-38.21-43.91C179.67,154.74,177.12,157.76,174.11,160.14ZM633,209.36c3.55,3.38,7,6.88,10.52,10.28,5.8-6,11.75-11.86,17.45-18,1.28,1,2.55,2,3.83,3.07-3.82,7.9-8.38,15.43-12.2,23.32a58.57,58.57,0,0,0,10.11,10c4.64-8.53,8.37-17.53,12.68-26.23,4.55.62,9.58,1.66,13.76-.91,4.72-3,8.42-8.43,7.95-14.23-.24-5.51-3.72-10.24-7.51-14-5.24-5.06-10.31-10.28-15.62-15.25C660.2,181.39,646.47,195.27,633,209.36Zm-56.68-23.69c2.83,1.87,5.6,3.83,8.37,5.81,2-2.85,4-5.65,5.9-8.5-2.8-2-5.59-3.93-8.33-6Q579.07,181.21,576.28,185.67ZM412.59,184c-27.48,1.74-54.86,8.35-79.41,21-31.58,16.29-58.29,42.21-74.8,73.75-14.37,27.38-20.84,58.41-21.56,89.17-1.12,39.25,4.38,79.59,22.18,115,15.39,30.7,40.25,57,71.17,72.27,21.78,11.06,46,16.5,70.29,18.19,8.05.2,16.1,1.23,24.16.4,34.42-.9,69.51-8.29,99.1-26.54,2.58-1.73,5.54-3.06,7.69-5.36.86-4.43.46-9,.88-13.47.64-7,.9-14.07,1-21.11-15.08,14.66-33.42,25.75-53,33.42-19.28,7.61-40.05,12-60.83,11.26-16.73-.6-33.49-3.94-48.77-10.9-27.47-12.27-48.75-35.59-62.54-61.94-10.22-20-16.25-42-19.09-64.27a286.71,286.71,0,0,1-.07-71c3.7-30.16,13.57-60,31.36-84.83,13.43-19.38,32-35.4,53.77-44.6,19.3-8.11,40.51-11.1,61.36-10.12,20.21,1.21,39.64,8.37,57.08,18.41,12.88,7.36,25,16.57,33.91,28.52,1.35-.4,2.72-.78,4.09-1.17a196.82,196.82,0,0,1,9.14-38.74c0-1,1.31-2.89-.19-3.34A249.38,249.38,0,0,0,412.59,184ZM111,196.82a108.66,108.66,0,0,0,1.87,14.69q3.17-3.19,6.31-6.42c-.34-2.71-.77-5.41-1.17-8.11,2.87.13,5.73.33,8.59.58q3.25-3.27,6.28-6.74c-4.92-.38-9.82-.89-14.71-1.49C115.79,191.8,113,194,111,196.82Zm24.9-1c-7.62,9.54-15.35,19-23,28.51,15.08,12.39,30.32,24.6,45.54,36.81,7.79-9.43,15.42-19,23.1-28.53-3-2.58-6-5-9.11-7.47-4.66,5.7-9.24,11.48-13.9,17.19-3-2.63-6.42-4.75-9.06-7.73,2.37-4.2,6-7.55,8.81-11.41-2.83-2.51-5.78-4.86-8.75-7.19-3.08,3.82-6.22,7.59-9.22,11.48-3-2.51-6.51-4.56-8.91-7.71,4.13-5.89,9-11.2,13.38-16.93C141.9,200.46,139,198.09,135.92,195.86Zm609.63,16.76c.56,1.51,1.16,3,1.77,4.54a37.44,37.44,0,0,1,4.25,1.67c2.45,4.94.6,11.3,4.32,15.71,2.89,3.36,7.78,2,11.59,1.52l-2-4.47c-1.87-.51-4.58-.54-5-2.9-1.09-4.45-.1-9.76-3.33-13.47C754.24,211.94,749.48,212.28,745.55,212.62Zm-14,6.36c1.2,2.78,2.48,5.53,3.77,8.28,2.73.64,5.46,1.25,8.18,1.92-1.23,2.53-2.78,4.94-3.56,7.65.78,2.92,2.41,5.53,3.7,8.25,2.22-4.42,4.91-8.67,6.59-13.34-1-3.26-2.71-6.22-4.1-9.31C741.29,221.24,736.43,220.05,731.56,219Zm-67,22.4c2.2,3.43,4.43,6.84,6.74,10.2q5.64-2.12,11.25-4.33c2.25,3.58,5,6.87,6.84,10.7l-.2,1.31c-2.37,2.78-5.19,5.13-7.73,7.74,2.55,3.83,4.85,7.83,7.62,11.51,1.48.76,2.36-.95,3.37-1.73,13-13.35,26.2-26.44,39-39.92-3.06-5.59-7-10.67-10.32-16.08C702.24,227.44,683.41,234.42,664.58,241.38ZM167.46,251.84c2.43,2.3,4.67,4.81,7.29,6.91,2.89-1.9,5-4.74,7.19-7.33-2.48-2.1-4.42-5.08-7.39-6.47C171.85,246.86,169.81,249.54,167.46,251.84Zm-73.27,5.61c-3.82,7.46-7.47,15-11.28,22.48,17.52,8.66,34.91,17.6,52.51,26.11,3.45-7,7-14,10.46-21,2.21-4.65,3.93-10,2.32-15.15-1.66-6.48-8.16-10.75-14.6-11.22-4.58-.1-8.65,2.43-11.68,5.66.06-2.52.31-5.13-.56-7.55-2-6.76-9.93-11.19-16.73-9.06C99.88,249.18,96.39,253.16,94.19,257.45ZM718.4,287.82c-6.91,3.34-14.37,5.43-21.39,8.56,1.8,4.5,3.54,9,5.3,13.56,6.22-2.2,12.34-4.68,18.51-7,1.79-.63,3.63-1.45,5.59-1.26,12.09.87,24.19,1.51,36.26,2.51a126,126,0,0,0-4.51-11.93c-8.22-1.26-16.59-.29-24.86-.81Q742.68,283.74,752,276c-1.91-4.71-3.42-9.6-5.62-14.19C736.72,270.08,728,279.45,718.4,287.82ZM381.28,266.28q.11,131.63,0,263.25a182,182,0,0,1,44.43,0q0-64.5,0-129c6.25,0,12.5,0,18.75,0q18.42,16.25,36.7,32.64c7.31,6.22,13.69,13.43,20.59,20.1q21.12,21.5,42.4,42.85c11,10.77,21.45,22.07,31.84,33.41a300.2,300.2,0,0,1,57.19,0c-3.42-3.59-6.48-7.5-10.06-10.94-8.53-7.6-17.15-15.09-25.53-22.85-19.79-19.6-40-38.77-59.79-58.37-13.7-13.09-27.3-26.3-40.64-39.77,12-2,24.09-4.12,35.78-7.68,16.82-5,33.39-12.26,46.79-23.84,11.87-10.19,19.86-25.4,19.43-41.25.44-12.66-4.2-25.54-13.31-34.46-11.13-10.9-26.4-16.09-41.33-19.26-28.6-6.07-58-4.74-87-4.88C432.12,266.26,406.7,266.11,381.28,266.28Zm-291.34,100c-12.78-.19-25.57,0-38.35,0,.18.38.54,1.15.71,1.54C62.42,375,71.82,383.2,82.07,390.2c-.13,5-2.48,9.6-3.79,14.38-2.46,8.47-5.56,16.78-7.51,25.4,10.76-7.71,21.08-16,31.72-23.87,9.67,7.37,19.46,14.62,28.89,22.31.93,0,1.86,0,2.8.08-3-8.4-5.34-17-8.07-25.46-1.24-4.29-3.07-8.47-3.25-13,10.42-6.82,19.71-15.19,29.94-22.28.13-.37.39-1.1.53-1.47-12.75-.13-25.5.17-38.23-.21a37.09,37.09,0,0,1-2.77-7.66c-3.26-10.61-6.58-21.19-9.77-31.82C98.12,339.78,94.49,353.2,89.94,366.32ZM747.68,326.8c-3.27,13.34-8.06,26.25-11.9,39.43-13.14.15-26.29-.15-39.42.21,10.45,8.46,21.62,16,31.77,24.85-.49,1.52-1,3-1.39,4.58l-.41.77c-3.09,11.14-7.3,22-9.76,33.3q15.1-11.16,29.88-22.79c1.07,0,2.14,0,3.23,0,9.87,7.69,19.79,15.33,29.84,22.8a39.61,39.61,0,0,0-1.61-7.33c-3.5-10.53-6.54-21.2-9.89-31.77q16-12,31.72-24.38c-13.12-.37-26.26,0-39.39-.24-2.84-9.86-6.13-19.58-9-29.43A70.57,70.57,0,0,0,747.68,326.8ZM597.11,576.73a34.66,34.66,0,0,0-20.59,13.12c-5.2,7.15-5.74,16.56-4,25,2.45,11,7.61,21.14,13.59,30.58,5.28,8.1,11.81,16.14,21,19.85,10,3.94,21.48.26,29.49-6.37a27.32,27.32,0,0,0,9.83-21.08c.59-11.84-4-23.16-9.64-33.35-5.08-9-11.16-17.9-19.93-23.68A26.51,26.51,0,0,0,597.11,576.73ZM241.67,596.64c4.24,1.16,8.48,2.3,12.65,3.68-7.27,12.9-14.08,26.06-21.3,39-3.65-2.17-7.36-4.22-11-6.32-3.26,5.58-6.21,11.33-9.27,17,14.63,8.24,29.16,16.64,43.84,24.78,3-5.68,6.17-11.31,9.16-17-3.6-2.08-7.23-4.11-10.87-6.12,8.51-16.23,17.47-32.22,26.1-48.38,2.25-4.38,5.08-8.5,6.67-13.19,1.57.4,1.86,0,.85-1.32-4.34-2.42-8.54-5.11-13-7.29-8.17,1.64-16.62.16-24.46-2.32C248,585,244.67,590.76,241.67,596.64ZM353.92,616.3c-11.86,7.1-17.61,22.3-15.4,35.63,2.08,9.17,9.65,17.07,19,18.75,4.9,1.36,9.87-.09,14.73-.87-1.22,4.88-2.2,10.22-5.75,14a4.7,4.7,0,0,1-7.24-.77c-1.4-3-.91-6.37-1-9.55q-11.65,0-23.31,0c0,5.49.4,11.13,2.68,16.21a25.29,25.29,0,0,0,15.91,14c8.63,2.88,18.74,2.55,26.39-2.74,10-6.83,15.9-18.15,19-29.58,3.21-12.85,4.25-26.84-.62-39.41-2.84-7.76-8.78-14.55-16.68-17.35C372.72,611.45,362.21,611.34,353.92,616.3Zm129.72-2.5c-9.14,1.39-17.76,7.05-21.52,15.66-5.71,12.51-4,26.79-1.75,39.91,2.23,11,5.43,22.81,13.93,30.76,7.78,7.25,19.59,7.78,29.31,4.75a27.62,27.62,0,0,0,17.1-16.52c4.95-12.35,3.73-26.12,1.31-38.9-2.35-11-6-22.65-14.88-30.23C500.75,613.68,491.77,612.3,483.64,613.8Z"/><path class="cls-1" d="M607.86,135.35a6.08,6.08,0,0,1,7.08,3.35c1.06,4.57-1.8,8.71-3.88,12.52-3.83,6.12-7,12.89-12.41,17.84-4,3.94-11.14-1.16-9.3-6.3,2.08-6.38,6-11.93,9.5-17.61C601.36,141.54,603.61,137.15,607.86,135.35Z"/><path class="cls-1" d="M667.7,194.9c3.07-3.19,6.11-6.43,9.47-9.33,2,2.2,4.34,4.28,5.63,7.05,1.65,4.37-3.53,9.45-7.89,7.71C672,199.25,669.92,196.91,667.7,194.9Z"/><path class="cls-1" d="M692.48,243.28q11.1-4.46,22.35-8.52c-5.75,5.47-11.11,11.4-17.42,16.24C695.75,248.43,694.09,245.87,692.48,243.28Z"/><path class="cls-1" d="M98.76,271.37c1.59-3.1,2.8-6.74,5.85-8.74,3-1.24,6.66.44,8.37,3.09,1.59,3.93-.87,7.72-2.46,11.19C106.48,275.32,102.65,273.28,98.76,271.37Z"/><path class="cls-1" d="M119.23,281.65c1.58-3.29,2.65-7.55,6.34-9.09,3.51-1.13,7.39.8,9.39,3.73,2.11,4-1,8.06-2.49,11.67C128,286,123.67,283.7,119.23,281.65Z"/><path class="cls-1" d="M425.76,280.12q23.87,0,47.75,0c11.52.08,23.17-.53,34.53,1.86,13.39,2.6,27.28,7.32,36.67,17.71,7.76,8.28,10.89,20,10.37,31.14-.05,12.55-6.19,24.69-15.72,32.73-13.29,11.5-30.34,17.65-47.44,20.72-18.65,2.48-37.53,4.41-56.34,2.57-3.25-.38-6.52-.53-9.78-.7C425.68,350.82,425.75,315.47,425.76,280.12Z"/><path class="cls-1" d="M738.05,368c3.12-11.43,7.25-22.58,10-34.13,1.3,9.27.7,18.63.81,27.95-.15,6.79.53,13.66-.88,20.36C744.69,377.42,741.46,372.64,738.05,368Z"/><path class="cls-1" d="M97.18,352.16c1.72-5.51,2.84-11.27,5.59-16.4.49,15.26.22,30.55.16,45.83C98.68,378,96.18,373,92.69,368.75,93.3,363,95.69,357.69,97.18,352.16Z"/><path class="cls-1" d="M57.94,368.27c10.94-.16,22-.27,32.85,1,3.45,4.64,7.19,9,10.52,13.77C86.57,379.05,72.53,372.79,57.94,368.27Z"/><path class="cls-1" d="M104.62,382.7c2.89-4.76,5.58-9.65,8.86-14.15,11.7.32,23.4-1,35.08-.25C133.69,372.36,119.44,378.47,104.62,382.7Z"/><path class="cls-1" d="M704.18,368.35a236.77,236.77,0,0,1,32.4.93c3.37,4.52,7.07,8.81,10.16,13.55a94,94,0,0,1-22.31-7.94l2.31,1.9C719.46,373.38,711.77,371,704.18,368.35Z"/><path class="cls-1" d="M758.36,369.19a61.94,61.94,0,0,1,8.29-.7c9.21,0,18.43-.67,27.65-.21-14.47,4.14-28.52,9.64-42.84,14.25C752.39,377.48,756.2,373.71,758.36,369.19Z"/><path class="cls-1" d="M87.11,388.69c5.19-1.1,10.25-2.73,15.48-3.68-9,12.69-17.86,25.44-26.94,38.05,1.67-6.91,4.2-13.57,6.38-20.33A141.53,141.53,0,0,1,87.11,388.69Z"/><path class="cls-1" d="M104.55,384.93a126.08,126.08,0,0,1,15,4.51c1.53,6,3.75,11.81,5.52,17.76,1.57,5.26,4,10.37,4.21,15.94-.59-1.06-1.17-2.13-1.76-3.17C119.72,408.38,112.11,396.67,104.55,384.93Z"/><path class="cls-1" d="M750.21,384.85A122.38,122.38,0,0,1,765,389.36c3.32,10.12,6.28,20.37,9.8,30.44.11,1.16.24,2.32.38,3.49C767,410.41,758.38,397.77,750.21,384.85Z"/><path class="cls-1" d="M733.34,388.75c4.75-1.55,9.66-2.55,14.51-3.75-8.5,13.3-18,25.93-27.13,38.82,3.34-10.57,7-21,10.45-31.57C731.75,391.05,731.84,389.19,733.34,388.75Z"/><path class="cls-1" d="M595,582.38a21,21,0,0,1,18,1.82c7.87,4.76,13.41,12.43,18.06,20.2,5.12,8.73,9.45,18.23,10.47,28.41.82,7.54-1.06,15.87-6.84,21.14-7.21,6.79-18.65,10.76-27.9,5.75-9.84-5.46-16-15.47-21.3-25-5.37-10.3-10.6-21.86-8.43-33.75C578.67,591.82,586.64,585.32,595,582.38Zm.95,10.06a8.93,8.93,0,0,0-6.48,9.41c.73,5.42,3.39,10.29,5.94,15,4.2,7.54,8.18,15.19,12.38,22.74,2.4,4,5,8.5,9.45,10.52A9,9,0,0,0,629,644.43c1-4.82-1.21-9.51-3.22-13.76-4.25-8.07-8.69-16-13-24.07-2.6-4.59-5-9.53-9.26-12.84A8.61,8.61,0,0,0,595.92,592.44Z"/><path class="cls-1" d="M248.88,593.38c1.58-2.71,3.08-5.45,4.55-8.21,6.28,1.27,12.66,2.34,19.09,1.89,3.53-.57,6.28,2.07,9.24,3.51-1.38,4.13-3.8,7.78-5.83,11.6-9.2,17.16-18.63,34.2-27.78,51.39,3.41,1.9,6.94,3.61,10.18,5.81.14,3.2-2.45,5.74-3.66,8.55-11.9-6.28-23.47-13.19-35.22-19.75,1.33-2.85,2.82-5.63,4.39-8.35,3.78,2,7.44,4.24,11.3,6.11,8.65-16.37,17.86-32.45,26.28-48.93C257.21,595.89,253,594.76,248.88,593.38Z"/><path class="cls-1" d="M594.74,598.5c1.79-.67,4-2.31,5.82-.69,3.73,3.17,5.83,7.71,8.17,11.9,4.18,7.79,8.52,15.49,12.58,23.34,1.48,3.23,3.5,6.67,2.75,10.37a4.07,4.07,0,0,1-6.32,1.23c-4-3.58-6.18-8.67-8.8-13.26-4.16-7.93-8.74-15.64-12.62-23.7A17.19,17.19,0,0,1,594.74,598.5Z"/><path class="cls-1" d="M359.71,619c9.39-3.29,21-1.66,28.25,5.52,6.63,7,8.55,17,8.8,26.28-.3,14-3.56,28.55-12.53,39.63-4.52,5.69-11.2,10.14-18.66,10.2s-15.7-2.21-20.61-8.23c-3.27-3.88-4.39-9-5.11-13.88,4.39-.07,8.79,0,13.19-.06.73,3.85,1.42,8.65,5.44,10.5,4.59,2.79,10.73.69,13.38-3.78,4.3-6.88,5.5-15.16,6.53-23.07-6.36,2.1-13,5.42-19.83,3.82-9.48-1.79-16.61-11.43-15.67-21C343.68,634.24,349.29,623,359.71,619Zm8.21,9.48c-4.24,1.68-6.36,6.2-7.41,10.37-1.12,5.06-2.11,10.82.67,15.54,4,5.79,13.05,5.19,18.12,1.29,1.55-7.59,3.16-16.08-.28-23.41C377,628.22,371.89,627.22,367.92,628.43Z"/><path class="cls-1" d="M480.93,619.49c7.48-2.19,16.36-2,22.62,3.2,7.68,6.33,11,16.23,13.17,25.61,2.49,12,4.06,24.91,0,36.79-2.37,7-7.82,13.23-15.12,15.26-7.68,2.13-16.91,2.14-23.26-3.32-7.62-6.52-10.51-16.67-12.64-26.1-2.27-11.93-4.17-24.6-.34-36.42A22.63,22.63,0,0,1,480.93,619.49Zm2.82,9.32c-3.1,1.4-4.75,4.78-4.94,8.05-.69,7.93,1.38,15.72,2.4,23.53,1.11,6.6,1.85,13.28,3.28,19.83,1,4.13,2.61,8.76,6.64,10.87,4.91,2.59,11.59-.88,12.49-6.31,1-6.29-.35-12.62-1.25-18.84-1.24-7.79-2.34-15.6-3.65-23.37-.8-4.07-1.72-8.33-4.29-11.7C492,627.73,487.25,627.39,483.75,628.81Z"/><path class="cls-1" d="M367.6,634.86c1.53-2.81,6.51-2.58,7.43.66,2,5.47.57,11.39,0,17a10.75,10.75,0,0,1-9.81-.4C363.83,646.34,364.37,639.93,367.6,634.86Z"/><path class="cls-1" d="M484.88,634.16c1-1.49,3.18-1.09,4.71-1,4.22,4.47,4.11,11.13,5.26,16.81,1.25,10.95,4.41,21.78,4.07,32.85.11,3.23-3.37,4.8-6.05,3.52-3.08-3-3.54-7.54-4.38-11.52-1.53-10.09-3.29-20.15-4.6-30.28C483.84,641.12,482.93,637.19,484.88,634.16Z"/><path class="cls-2" d="M397.1.86C492-4.88,589,18.3,669.67,69.11c65.79,41.23,120.63,101.11,151.84,172.54a341.83,341.83,0,0,1,28.86,131.18c1.07,59.21-14,118.53-42.5,170.41-29,53.17-71.28,98.67-120.86,133.24-70.8,49.55-156.35,77-242.55,80.21a289.77,289.77,0,0,1-38.87,0c-83.55-3.26-166.47-29.15-235.9-76C106.12,638.15,54,577.55,25.18,506.37A339.54,339.54,0,0,1,.63,395.78a249.76,249.76,0,0,1,.28-39c4-67.16,29.31-132.41,69.47-186.2C104.54,124.52,149.07,86.43,199,58.32,259.46,24.28,327.9,4.87,397.1.86ZM390,15.49c-76.29,5.8-151.34,30.87-214.64,74.07C119.55,127.45,72.92,179.62,44.56,241A327.14,327.14,0,0,0,15,353.74,323.83,323.83,0,0,0,30.29,479.88,346.3,346.3,0,0,0,87,585.31C133.08,644.36,196.8,688.7,266.81,714.7a454,454,0,0,0,132.67,27.55c13,.36,26,1.43,39,.41a448.33,448.33,0,0,0,159.22-33.43c53.27-21.92,102.33-54.51,142-96.36,43-45,74.81-101.23,88.62-162.11a326,326,0,0,0,3-129.88c-8.06-44.87-25.84-87.81-51-125.78C737.85,130.75,675,81.08,604.39,50.68,537.19,21.67,462.87,10,390,15.49Z"/><path class="cls-2" d="M391.29,24.11c38.8-2.69,78-1,116.23,6.2C585.22,44.54,659.42,80,717.33,134a360.15,360.15,0,0,1,66.76,83.21A322.6,322.6,0,0,1,826.31,345.8c6.81,63.44-6.53,128.72-37,184.72-27.53,51.29-68.27,95-116,128-58.14,40.29-126.62,65-196.83,72.87-76.44,8.66-155.25-2.17-226-32.53-71-30.33-134.18-80.66-176-145.94C44.12,505.83,25.64,450.92,23,394.87c0-8-1.2-16-.28-24A307.71,307.71,0,0,1,33,298c15.92-60.76,50.22-116,95.4-159.37,52.83-51,120.1-86.33,191.38-103.39A439.31,439.31,0,0,1,391.29,24.11ZM390,32.67c-10.5.95-21,2.08-31.4,3.67-77.25,11.52-151.72,44.25-210.7,95.74C95.87,177.23,56.3,237.66,39.79,304.88A308.57,308.57,0,0,0,32.15,407a313.17,313.17,0,0,0,39,124.22c35.92,64.4,93.06,115.7,158.63,148.74,78.56,39.84,169.44,53.57,256.52,41.69,69.43-9.59,136.83-35.91,193.09-77.93,52.09-38.62,94.67-90.93,118.52-151.48a306.13,306.13,0,0,0,21.56-103.47c.94-9.62-.11-19.25-.36-28.87a312.16,312.16,0,0,0-41-136.2c-36.33-63.94-93.59-114.78-159.17-147.38C548.56,41,468.37,26.55,390,32.67Z"/><path class="cls-2" d="M412.59,184a249.38,249.38,0,0,1,127,24c1.5.45.2,2.3.19,3.34A196.82,196.82,0,0,0,530.62,250c-1.37.39-2.74.77-4.09,1.17-8.95-11.95-21-21.16-33.91-28.52-17.44-10-36.87-17.2-57.08-18.41-20.85-1-42.06,2-61.36,10.12-21.81,9.2-40.34,25.22-53.77,44.6-17.79,24.84-27.66,54.67-31.36,84.83a286.71,286.71,0,0,0,.07,71C292,437.06,298,459,308.21,479.07,322,505.42,343.28,528.74,370.75,541c15.28,7,32,10.3,48.77,10.9,20.78.78,41.55-3.65,60.83-11.26,19.54-7.67,37.88-18.76,53-33.42-.12,7-.38,14.09-1,21.11-.42,4.48,0,9-.88,13.47-2.15,2.3-5.11,3.63-7.69,5.36-29.59,18.25-64.68,25.64-99.1,26.54-8.06.83-16.11-.2-24.16-.4-24.26-1.69-48.51-7.13-70.29-18.19-30.92-15.3-55.78-41.57-71.17-72.27-17.8-35.39-23.3-75.73-22.18-115,.72-30.76,7.19-61.79,21.56-89.17,16.51-31.54,43.22-57.46,74.8-73.75C357.73,192.3,385.11,185.69,412.59,184Z"/><path class="cls-2" d="M381.28,266.28c25.42-.17,50.84,0,76.26-.07,29,.14,58.43-1.19,87,4.88,14.93,3.17,30.2,8.36,41.33,19.26,9.11,8.92,13.75,21.8,13.31,34.46.43,15.85-7.56,31.06-19.43,41.25-13.4,11.58-30,18.8-46.79,23.84-11.69,3.56-23.74,5.69-35.78,7.68,13.34,13.47,26.94,26.68,40.64,39.77,19.79,19.6,40,38.77,59.79,58.37,8.38,7.76,17,15.25,25.53,22.85,3.58,3.44,6.64,7.35,10.06,10.94a300.2,300.2,0,0,0-57.19,0c-10.39-11.34-20.84-22.64-31.84-33.41q-21.32-21.32-42.4-42.85c-6.9-6.67-13.28-13.88-20.59-20.1q-18.29-16.4-36.7-32.64c-6.25,0-12.5,0-18.75,0q-.06,64.49,0,129a182,182,0,0,0-44.43,0Q381.27,397.91,381.28,266.28Zm44.48,13.84c0,35.35-.08,70.7,0,106,3.26.17,6.53.32,9.78.7,18.81,1.84,37.69-.09,56.34-2.57,17.1-3.07,34.15-9.22,47.44-20.72,9.53-8,15.67-20.18,15.72-32.73.52-11.15-2.61-22.86-10.37-31.14C535.32,289.31,521.43,284.59,508,282c-11.36-2.39-23-1.78-34.53-1.86Q449.63,280.12,425.76,280.12Z"/><path class="cls-3" d="M357.21,71.55c3-3.94,5.42-8.26,8.58-12,3.33-.57,6.74-.45,10.08-.91,3.53,3.7,6.91,7.53,10.28,11.37-3.17.15-6.33.33-9.49.43a61.85,61.85,0,0,0-5.31-5.78c-2,1.88-3.28,4.4-5.18,6.38C363.2,71.45,360.19,71.38,357.21,71.55Z"/><path class="cls-3" d="M350.08,79.59c12.23-1.38,24.44-3,36.68-4.4.36,3.71.9,7.4,1.33,11.1-7.28,1.15-14.65,1.67-21.92,2.87.54,3.82,1,7.66,1.34,11.5,5.05-.12,10-1.17,15.05-1.45.3,3.7.68,7.39.95,11.09-4.85.69-9.74,1.11-14.57,1.9.58,4,1,8.08,1.76,12.09,7.18-1,14.41-1.71,21.59-2.78.65,3.9,1,7.83,1.66,11.73-12.23,1.49-24.44,3.19-36.7,4.38C354.85,118.28,352.6,98.91,350.08,79.59Z"/><path class="cls-3" d="M406.69,133.3c.07-19.56,0-39.12.23-58.68q6,.06,12,0c5.81,10.39,11.21,21,17,31.43.28-10.35.24-20.7.38-31A96.63,96.63,0,0,1,448,75c.07,19.48-.16,39-.18,58.44l-11.78,0c-5.69-10.9-11.65-21.66-17.15-32.66-.38,10.87-.34,21.74-.65,32.61Z"/><path class="cls-3" d="M324.75,84.76c4.81-.8,9.59-1.7,14.37-2.62,3.79,19.11,7,38.33,10.75,57.46-4.81,1.11-9.69,1.9-14.55,2.81C331.8,123.19,328.19,104,324.75,84.76Z"/><path class="cls-3" d="M493.94,88.16c8.23-7.4,21.81-5.53,29.4,1.85,5.16,5.19,5.23,13,4.23,19.78-4.56-.66-9-2-13.49-2.93.1-3.49,1.12-7.49-1.17-10.52a5.1,5.1,0,0,0-6.15-1.18c-2.69,1.37-4,4.3-5.12,6.93a101.52,101.52,0,0,0-4.77,17.77c-.59,3.53-1.31,7.48.6,10.75,2,2.7,6.45,3.71,9.12,1.39,2.62-2.16,3.24-5.7,4.22-8.76,4.13,1.28,8.24,2.67,12.29,4.21-1.57,5.11-4,10.21-8.55,13.34-7.3,5.43-17.72,3.7-24.87-1.12-7.14-5.06-9.07-14.64-8.06-22.85C482.88,106.45,485.89,95.37,493.94,88.16Z"/><path class="cls-3" d="M297.94,92.35c3.84-1.46,7.71-2.87,11.6-4.19,1.44,20.22,3.67,40.39,4.77,60.63-4.7,1.54-9.31,3.34-14,4.9-10.65-16.94-21.88-33.53-32.22-50.66,4.68-1.44,9.24-3.25,13.86-4.89,6.78,12,13.73,23.81,20.32,35.87C301.26,120.08,299.35,106.24,297.94,92.35Z"/><path class="cls-3" d="M544.15,94c4.53,1.71,9,3.49,13.6,5.11-2.38,7.19-5.27,14.19-8,21.24,3.63,1.52,7.31,2.91,11,4.26,2.69-7,5.4-14,8-21,4.68,1.49,9.23,3.34,13.8,5.13q-10.32,27.42-20.91,54.71l-13.74-5.32c2.89-7.45,5.72-14.94,8.56-22.41-3.63-1.44-7.27-2.85-11-4.06-2.93,7.37-5.61,14.84-8.55,22.21-4.62-1.58-9.15-3.39-13.71-5.08C530,130.41,537.08,112.19,544.15,94Z"/><path class="cls-3" d="M220.58,127.88c3.29-3.44,8.32-5,12.26-7.79,9.88,16.85,19.82,33.68,29.52,50.64-4.25,2.42-8.42,5-12.75,7.3q-6-10.29-12-20.55c-3.47,1.81-6.87,3.74-10.15,5.88,4,6.9,8,13.74,12,20.62-4.18,2.44-8.27,5-12.55,7.3a45,45,0,0,1-4.17-6.6q-12.79-21.9-25.57-43.8c4.32-2.42,8.44-5.21,13-7.25,3.71,6.39,7.2,12.93,11.19,19.14,3.64-1.4,6.81-3.72,10.16-5.67C228,140.62,223.79,134.51,220.58,127.88Z"/><path class="cls-3" d="M599.5,124.85c10.89-4.74,24.43,2.48,28.09,13.43l1.78.77c1.4-.2,2.81-.4,4.22-.58-.92-2-2.69-4.41-1.12-6.57,2.11-3.58,7.91-3.67,10.31-.35,2.49,2.88,1.37,7.67-1.8,9.58-3.68,2.69-8.46,2.13-12.73,1.88.11,10.7-5.12,20.71-11.75,28.79-5.15,6.11-12.71,11.32-21.07,10.29a23.72,23.72,0,0,1-17.18-11.57c-3.93-7.5-2.06-16.52,1.37-23.84C584,137.79,590.07,128.84,599.5,124.85Zm8.36,10.5c-4.25,1.8-6.5,6.19-9,9.8-3.46,5.68-7.42,11.23-9.5,17.61-1.84,5.14,5.26,10.24,9.3,6.3,5.38-4.95,8.58-11.72,12.41-17.84,2.08-3.81,4.94-7.95,3.88-12.52A6.08,6.08,0,0,0,607.86,135.35Z"/><path class="cls-3" d="M370.62,138.24c3.43-.19,6.85-.55,10.28-.78.15,3.5.32,7,.45,10.49l-10.21.41C371,145,370.88,141.61,370.62,138.24Z"/><path class="cls-3" d="M174.11,160.14c3-2.38,5.56-5.4,9-7.23,12.92,14.46,25.48,29.27,38.21,43.91-2.95,2.56-5.92,5.09-8.8,7.74-11.48-4.17-22.69-9.1-34.31-12.87C185,199.91,192.06,208,199,216.09c-2.95,2.56-5.92,5.11-8.83,7.72-13-14.57-25.54-29.56-38.52-44.16,3.07-2.82,6.26-5.5,9.47-8.16,11,4.18,21.87,8.61,33,12.37C187.6,175.85,180.51,168.28,174.11,160.14Z"/><path class="cls-3" d="M633,209.36c13.51-14.09,27.24-28,41-41.85,5.31,5,10.38,10.19,15.62,15.25,3.79,3.74,7.27,8.47,7.51,14,.47,5.8-3.23,11.2-7.95,14.23-4.18,2.57-9.21,1.53-13.76.91-4.31,8.7-8,17.7-12.68,26.23a58.57,58.57,0,0,1-10.11-10c3.82-7.89,8.38-15.42,12.2-23.32-1.28-1-2.55-2.06-3.83-3.07-5.7,6.1-11.65,11.95-17.45,18C639.94,216.24,636.51,212.74,633,209.36ZM667.7,194.9c2.22,2,4.33,4.35,7.21,5.43,4.36,1.74,9.54-3.34,7.89-7.71-1.29-2.77-3.6-4.85-5.63-7.05C673.81,188.47,670.77,191.71,667.7,194.9Z"/><path class="cls-3" d="M576.28,185.67q2.79-4.46,5.94-8.66c2.74,2,5.53,4,8.33,6-1.94,2.85-3.95,5.65-5.9,8.5C581.88,189.5,579.11,187.54,576.28,185.67Z"/><path class="cls-3" d="M111,196.82c2-2.85,4.77-5,7.17-7.49,4.89.6,9.79,1.11,14.71,1.49q-3,3.48-6.28,6.74c-2.86-.25-5.72-.45-8.59-.58.4,2.7.83,5.4,1.17,8.11q-3.14,3.22-6.31,6.42A108.66,108.66,0,0,1,111,196.82Z"/><path class="cls-3" d="M135.92,195.86c3,2.23,6,4.6,8.87,7-4.36,5.73-9.25,11-13.38,16.93,2.4,3.15,5.89,5.2,8.91,7.71,3-3.89,6.14-7.66,9.22-11.48,3,2.33,5.92,4.68,8.75,7.19-2.85,3.86-6.44,7.21-8.81,11.41,2.64,3,6.09,5.1,9.06,7.73,4.66-5.71,9.24-11.49,13.9-17.19,3.07,2.45,6.15,4.89,9.11,7.47-7.68,9.53-15.31,19.1-23.1,28.53C143.23,249,128,236.76,112.91,224.37,120.57,214.87,128.3,205.4,135.92,195.86Z"/><path class="cls-3" d="M745.55,212.62c3.93-.34,8.69-.68,11.57,2.6,3.23,3.71,2.24,9,3.33,13.47.46,2.36,3.17,2.39,5,2.9l2,4.47c-3.81.48-8.7,1.84-11.59-1.52-3.72-4.41-1.87-10.77-4.32-15.71a37.44,37.44,0,0,0-4.25-1.67C746.71,215.65,746.11,214.13,745.55,212.62Z"/><path class="cls-3" d="M731.56,219c4.87,1.07,9.73,2.26,14.58,3.45,1.39,3.09,3.14,6,4.1,9.31-1.68,4.67-4.37,8.92-6.59,13.34-1.29-2.72-2.92-5.33-3.7-8.25.78-2.71,2.33-5.12,3.56-7.65-2.72-.67-5.45-1.28-8.18-1.92C734,224.51,732.76,221.76,731.56,219Z"/><path class="cls-3" d="M664.58,241.38c18.83-7,37.66-13.94,56.59-20.6,3.36,5.41,7.26,10.49,10.32,16.08-12.82,13.48-26.06,26.57-39,39.92-1,.78-1.89,2.49-3.37,1.73-2.77-3.68-5.07-7.68-7.62-11.51,2.54-2.61,5.36-5,7.73-7.74l.2-1.31c-1.81-3.83-4.59-7.12-6.84-10.7q-5.61,2.22-11.25,4.33C669,248.22,666.78,244.81,664.58,241.38Zm27.9,1.9c1.61,2.59,3.27,5.15,4.93,7.72,6.31-4.84,11.67-10.77,17.42-16.24Q703.58,238.81,692.48,243.28Z"/><path class="cls-3" d="M167.46,251.84c2.35-2.3,4.39-5,7.09-6.89,3,1.39,4.91,4.37,7.39,6.47-2.22,2.59-4.3,5.43-7.19,7.33C172.13,256.65,169.89,254.14,167.46,251.84Z"/><path class="cls-3" d="M94.19,257.45c2.2-4.29,5.69-8.27,10.44-9.71,6.8-2.13,14.7,2.3,16.73,9.06.87,2.42.62,5,.56,7.55,3-3.23,7.1-5.76,11.68-5.66,6.44.47,12.94,4.74,14.6,11.22,1.61,5.11-.11,10.5-2.32,15.15-3.47,7-7,14-10.46,21-17.6-8.51-35-17.45-52.51-26.11C86.72,272.46,90.37,264.91,94.19,257.45Zm4.57,13.92c3.89,1.91,7.72,3.95,11.76,5.54,1.59-3.47,4-7.26,2.46-11.19-1.71-2.65-5.34-4.33-8.37-3.09C101.56,264.63,100.35,268.27,98.76,271.37Zm20.47,10.28c4.44,2.05,8.75,4.38,13.24,6.31,1.5-3.61,4.6-7.67,2.49-11.67-2-2.93-5.88-4.86-9.39-3.73C121.88,274.1,120.81,278.36,119.23,281.65Z"/><path class="cls-3" d="M718.4,287.82c9.59-8.37,18.32-17.74,28-26.05,2.2,4.59,3.71,9.48,5.62,14.19q-9.3,7.8-18.68,15.47c8.27.52,16.64-.45,24.86.81a126,126,0,0,1,4.51,11.93c-12.07-1-24.17-1.64-36.26-2.51-2-.19-3.8.63-5.59,1.26-6.17,2.34-12.29,4.82-18.51,7-1.76-4.52-3.5-9.06-5.3-13.56C704,293.25,711.49,291.16,718.4,287.82Z"/><path class="cls-3" d="M597.11,576.73a26.51,26.51,0,0,1,19.72,4c8.77,5.78,14.85,14.67,19.93,23.68,5.59,10.19,10.23,21.51,9.64,33.35a27.32,27.32,0,0,1-9.83,21.08c-8,6.63-19.44,10.31-29.49,6.37-9.21-3.71-15.74-11.75-21-19.85-6-9.44-11.14-19.61-13.59-30.58-1.69-8.42-1.15-17.83,4-25A34.66,34.66,0,0,1,597.11,576.73ZM595,582.38c-8.33,2.94-16.3,9.44-17.94,18.53-2.17,11.89,3.06,23.45,8.43,33.75,5.32,9.57,11.46,19.58,21.3,25,9.25,5,20.69,1,27.9-5.75,5.78-5.27,7.66-13.6,6.84-21.14-1-10.18-5.35-19.68-10.47-28.41-4.65-7.77-10.19-15.44-18.06-20.2A21,21,0,0,0,595,582.38Z"/><path class="cls-3" d="M241.67,596.64c3-5.88,6.31-11.6,9.33-17.47,7.84,2.48,16.29,4,24.46,2.32,4.46,2.18,8.66,4.87,13,7.29-.21.33-.63,1-.85,1.32-1.59,4.69-4.42,8.81-6.67,13.19-8.63,16.16-17.59,32.15-26.1,48.38,3.64,2,7.27,4,10.87,6.12-3,5.7-6.12,11.33-9.16,17-14.68-8.14-29.21-16.54-43.84-24.78,3.06-5.69,6-11.44,9.27-17,3.68,2.1,7.39,4.15,11,6.32,7.22-12.94,14-26.1,21.3-39C250.15,598.94,245.91,597.8,241.67,596.64Zm7.21-3.26c4.12,1.38,8.33,2.51,12.54,3.62-8.42,16.48-17.63,32.56-26.28,48.93-3.86-1.87-7.52-4.1-11.3-6.11-1.57,2.72-3.06,5.5-4.39,8.35,11.75,6.56,23.32,13.47,35.22,19.75,1.21-2.81,3.8-5.35,3.66-8.55-3.24-2.2-6.77-3.91-10.18-5.81,9.15-17.19,18.58-34.23,27.78-51.39,2-3.82,4.45-7.47,5.83-11.6-3-1.44-5.71-4.08-9.24-3.51-6.43.45-12.81-.62-19.09-1.89C252,587.93,250.46,590.67,248.88,593.38Z"/><path class="cls-3" d="M595.92,592.44a8.61,8.61,0,0,1,7.6,1.32c4.24,3.31,6.66,8.25,9.26,12.84,4.29,8,8.73,16,13,24.07,2,4.25,4.26,8.94,3.22,13.76a9,9,0,0,1-11.77,5.73c-4.47-2-7.05-6.49-9.45-10.52-4.2-7.55-8.18-15.2-12.38-22.74-2.55-4.76-5.21-9.63-5.94-15A8.93,8.93,0,0,1,595.92,592.44Zm-1.18,6.06a17.19,17.19,0,0,0,1.58,9.19c3.88,8.06,8.46,15.77,12.62,23.7,2.62,4.59,4.77,9.68,8.8,13.26a4.07,4.07,0,0,0,6.32-1.23c.75-3.7-1.27-7.14-2.75-10.37-4.06-7.85-8.4-15.55-12.58-23.34-2.34-4.19-4.44-8.73-8.17-11.9C598.78,596.19,596.53,597.83,594.74,598.5Z"/><path class="cls-3" d="M353.92,616.3c8.29-5,18.8-4.85,27.69-1.67,7.9,2.8,13.84,9.59,16.68,17.35,4.87,12.57,3.83,26.56.62,39.41-3.06,11.43-9,22.75-19,29.58-7.65,5.29-17.76,5.62-26.39,2.74a25.29,25.29,0,0,1-15.91-14C335.37,684.63,335,679,335,673.5q11.65,0,23.31,0c.1,3.18-.39,6.56,1,9.55a4.7,4.7,0,0,0,7.24.77c3.55-3.81,4.53-9.15,5.75-14-4.86.78-9.83,2.23-14.73.87-9.38-1.68-16.95-9.58-19-18.75C336.31,638.6,342.06,623.4,353.92,616.3Zm5.79,2.65c-10.42,4-16,15.29-16.82,25.92-.94,9.58,6.19,19.22,15.67,21,6.86,1.6,13.47-1.72,19.83-3.82-1,7.91-2.23,16.19-6.53,23.07-2.65,4.47-8.79,6.57-13.38,3.78-4-1.85-4.71-6.65-5.44-10.5-4.4,0-8.8,0-13.19.06.72,4.89,1.84,10,5.11,13.88,4.91,6,13.09,8.34,20.61,8.23s14.14-4.51,18.66-10.2c9-11.08,12.23-25.65,12.53-39.63-.25-9.31-2.17-19.31-8.8-26.28C380.74,617.29,369.1,615.66,359.71,619Z"/><path class="cls-3" d="M483.64,613.8c8.13-1.5,17.11-.12,23.5,5.43,8.84,7.58,12.53,19.21,14.88,30.23,2.42,12.78,3.64,26.55-1.31,38.9a27.62,27.62,0,0,1-17.1,16.52c-9.72,3-21.53,2.5-29.31-4.75-8.5-8-11.7-19.72-13.93-30.76-2.29-13.12-4-27.4,1.75-39.91C465.88,620.85,474.5,615.19,483.64,613.8Zm-2.71,5.69a22.63,22.63,0,0,0-15.57,15c-3.83,11.82-1.93,24.49.34,36.42,2.13,9.43,5,19.58,12.64,26.1,6.35,5.46,15.58,5.45,23.26,3.32,7.3-2,12.75-8.23,15.12-15.26,4.06-11.88,2.49-24.76,0-36.79-2.17-9.38-5.49-19.28-13.17-25.61C497.29,617.53,488.41,617.3,480.93,619.49Z"/><path class="cls-3" d="M367.92,628.43c4-1.21,9.1-.21,11.1,3.79,3.44,7.33,1.83,15.82.28,23.41-5.07,3.9-14.09,4.5-18.12-1.29-2.78-4.72-1.79-10.48-.67-15.54C361.56,634.63,363.68,630.11,367.92,628.43Zm-.32,6.43c-3.23,5.07-3.77,11.48-2.4,17.25a10.75,10.75,0,0,0,9.81.4c.59-5.6,2.05-11.52,0-17C374.11,632.28,369.13,632.05,367.6,634.86Z"/><path class="cls-3" d="M483.75,628.81c3.5-1.42,8.2-1.08,10.68,2.06,2.57,3.37,3.49,7.63,4.29,11.7,1.31,7.77,2.41,15.58,3.65,23.37.9,6.22,2.28,12.55,1.25,18.84-.9,5.43-7.58,8.9-12.49,6.31-4-2.11-5.6-6.74-6.64-10.87-1.43-6.55-2.17-13.23-3.28-19.83-1-7.81-3.09-15.6-2.4-23.53C479,633.59,480.65,630.21,483.75,628.81Zm1.13,5.35c-1.95,3-1,7-1,10.37,1.31,10.13,3.07,20.19,4.6,30.28.84,4,1.3,8.54,4.38,11.52,2.68,1.28,6.16-.29,6.05-3.52.34-11.07-2.82-21.9-4.07-32.85-1.15-5.68-1-12.34-5.26-16.81C488.06,633.07,485.85,632.67,484.88,634.16Z"/><path class="cls-4" d="M89.94,366.32c4.55-13.12,8.18-26.54,12.62-39.7,3.19,10.63,6.51,21.21,9.77,31.82a37.09,37.09,0,0,0,2.77,7.66c12.73.38,25.48.08,38.23.21-.14.37-.4,1.1-.53,1.47-10.23,7.09-19.52,15.46-29.94,22.28.18,4.51,2,8.69,3.25,13,2.73,8.47,5.1,17.06,8.07,25.46-.94,0-1.87-.06-2.8-.08-9.43-7.69-19.22-14.94-28.89-22.31C91.85,414,81.53,422.27,70.77,430c2-8.62,5-16.93,7.51-25.4,1.31-4.78,3.66-9.35,3.79-14.38-10.25-7-19.65-15.16-29.77-22.35-.17-.39-.53-1.16-.71-1.54C64.37,366.36,77.16,366.13,89.94,366.32Zm7.24-14.16c-1.49,5.53-3.88,10.85-4.49,16.59,3.49,4.23,6,9.26,10.24,12.84.06-15.28.33-30.57-.16-45.83C100,340.89,98.9,346.65,97.18,352.16ZM57.94,368.27c14.59,4.52,28.63,10.78,43.37,14.79-3.33-4.72-7.07-9.13-10.52-13.77C79.91,368,68.88,368.11,57.94,368.27Zm46.68,14.43c14.82-4.23,29.07-10.34,43.94-14.4-11.68-.77-23.38.57-35.08.25C110.2,373.05,107.51,377.94,104.62,382.7Zm-17.51,6a141.53,141.53,0,0,0-5.08,14c-2.18,6.76-4.71,13.42-6.38,20.33,9.08-12.61,18-25.36,26.94-38.05C97.36,386,92.3,387.59,87.11,388.69Zm17.44-3.76c7.56,11.74,15.17,23.45,23,35,.59,1,1.17,2.11,1.76,3.17-.25-5.57-2.64-10.68-4.21-15.94-1.77-5.95-4-11.75-5.52-17.76A126.08,126.08,0,0,0,104.55,384.93Z"/><path class="cls-4" d="M747.68,326.8a70.57,70.57,0,0,1,3.67,10c2.87,9.85,6.16,19.57,9,29.43,13.13.2,26.27-.13,39.39.24Q784.05,378.86,768,390.83c3.35,10.57,6.39,21.24,9.89,31.77a39.61,39.61,0,0,1,1.61,7.33c-10-7.47-20-15.11-29.84-22.8-1.09,0-2.16,0-3.23,0q-14.75,11.64-29.88,22.79c2.46-11.31,6.67-22.16,9.76-33.3l.41-.77c.44-1.53.9-3.06,1.39-4.58-10.15-8.82-21.32-16.39-31.77-24.85,13.13-.36,26.28-.06,39.42-.21C739.62,353.05,744.41,340.14,747.68,326.8ZM738.05,368c3.41,4.64,6.64,9.42,9.88,14.18,1.41-6.7.73-13.57.88-20.36-.11-9.32.49-18.68-.81-27.95C745.3,345.42,741.17,356.57,738.05,368Zm-33.87.35c7.59,2.62,15.28,5,22.56,8.44l-2.31-1.9a94,94,0,0,0,22.31,7.94c-3.09-4.74-6.79-9-10.16-13.55A236.77,236.77,0,0,0,704.18,368.35Zm54.18.84c-2.16,4.52-6,8.29-6.9,13.34,14.32-4.61,28.37-10.11,42.84-14.25-9.22-.46-18.44.17-27.65.21A61.94,61.94,0,0,0,758.36,369.19Zm-8.15,15.66c8.17,12.92,16.77,25.56,25,38.44-.14-1.17-.27-2.33-.38-3.49-3.52-10.07-6.48-20.32-9.8-30.44A122.38,122.38,0,0,0,750.21,384.85Zm-16.87,3.9c-1.5.44-1.59,2.3-2.17,3.5-3.4,10.55-7.11,21-10.45,31.57,9.1-12.89,18.63-25.52,27.13-38.82C743,386.2,738.09,387.2,733.34,388.75Z"/><path class="cls-4" d="M288.46,588.78c1,1.28.72,1.72-.85,1.32C287.83,589.77,288.25,589.11,288.46,588.78Z"/></g></g></svg>